<?xml version="1.0" encoding="UTF-8"?>
<svg id="Layer_1" xmlns="http://www.w3.org/2000/svg" version="1.1" viewBox="0 0 768 768">
  <!-- Generator: Adobe Illustrator 30.2.1, SVG Export Plug-In . SVG Version: 2.1.1 Build 1)  -->
  <defs>
    <style>
      .st0 {
        fill: #fefffe;
      }
    </style>
  </defs>
  <path class="st0" d="M354.38,119.25h10.5l13.12,1.12,10.5,1.5,11.25,2.62,10.88,3.38,7.88,3,7.5,3.38,9.75,4.88,6,3.75,9,6,4.88,3.75,4.88,4.12,3,2.62,4.5,4.12,3,3,2.62,3,4.5,4.88,4.88,6.38,4.12,6,4.88,7.88,4.88,9,4.88,12,4.12,12.75,2.25,9,.75,4.12v3.75l-6.38,4.12-6,3.38-9.38,3.75-6.38,1.88-10.5,1.88-3,.38h-8.25l-5.25-1.12-6-3-3.38-2.62-2.62-3.38-1.5-3-4.88-14.25-3.75-7.5-4.12-6-3-3.75-4.12-4.5-4.5-4.5-7.5-5.62-7.12-4.12-9.38-4.5-7.12-2.62-8.62-2.25-6.75-1.12-3.75-.38h-13.88l-7.88,1.12-9.38,2.25-7.5,2.62-9.75,4.5-6.38,3.75-6,4.5-5.25,4.5-3,3-3.38,4.12-3.75,4.88-4.5,7.5-2.62,5.62-2.62,7.88-1.5,6.75-.75,6.38v10.88l1.12,7.88,1.88,7.5,3,7.88,3,5.62,4.12,6,3.75,4.88,7.5,7.5,4.88,3.75,5.62,4.12,7.12,4.5,16.5,9,10.12,4.88,9.38,4.12,11.25,4.88,13.5,5.62,12,4.5,8.62,3.38,13.12,5.25,17.62,7.5,7.5,3.38,14.25,7.12,8.62,4.88,6.75,4.12,7.5,4.88,7.12,4.88,6.38,4.88,5.25,4.5,3,2.62,4.88,4.5,3.38,3.38,2.62,3,4.5,5.25,3.75,4.88,4.5,6.38,4.88,8.25,4.5,8.62,4.12,10.12,3,9.75,1.88,7.88,1.88,12.38.75,11.62v6l-.75,10.5-1.5,10.88-2.25,10.5-2.62,9-3.75,10.12-5.25,10.88-5.25,9-5.25,7.5-3.38,4.5-4.12,4.88-3.38,3.75-2.62,3-4.88,4.88-4.12,3.38-3.75,3.38-6.38,4.88-7.12,4.88-5.25,3.38-6,3.38-6.38,3.38-7.5,3.38-9.75,3.75-6.75,2.25-11.62,3-9.75,1.88-12.38,1.5-5.25.38h-15.38l-15.75-1.5-10.5-1.88-10.12-2.62-10.88-3.38-10.12-4.12-10.88-5.25-7.88-4.5-6.38-4.12-6.38-4.5-6-4.88-4.12-3.38-11.62-11.62-3.38-4.12-3-3.38-4.5-6-4.5-6.75-4.88-8.25-4.5-8.62-3.38-7.88-4.5-13.5-2.25-8.62-2.25-10.12v-1.5l7.5-4.5,10.12-4.5,7.88-2.62,8.25-2.25,7.12-1.12h10.12l6.38,1.5,4.88,2.62,3.75,3.38,2.25,3,2.25,5.25,3.38,9.38,4.5,9.38,4.12,6.75,3.75,4.88,3.38,3.75,6.75,6.75,6.38,4.88,7.88,4.88,8.62,4.12,11.25,3.75,8.62,1.88,7.88,1.12h16.5l7.88-1.12,8.25-1.88,6-1.88,7.12-2.62,7.88-3.75,7.12-4.5,6.38-4.88,4.5-4.12,4.5-4.5,4.88-6.38,3.38-5.25,3-6,2.25-6,2.25-7.88,1.5-8.62v-14.62l-1.12-7.12-2.62-9.38-3-6.75-3.38-6-4.12-5.62-4.5-4.88-2.62-2.62-4.12-3.38-6.38-4.88-5.62-3.75-7.12-4.5-7.88-4.5-6-3-9.75-4.5-11.25-4.88-9-3.75-16.12-6.38-14.62-5.62-9.75-4.12-15-6.38-13.12-6-12-6-7.12-3.75-9.38-5.25-7.12-4.5-6.75-4.5-6.38-4.5-5.25-4.12-5.25-4.5-3.75-3.38-3-2.62-7.5-7.5-2.62-3-4.12-4.88-4.88-6.75-4.12-6.38-3.75-6.38-4.5-10.12-4.5-13.5-2.25-9-1.5-9.38-1.12-10.88v-16.88l1.12-10.5,1.88-10.88,2.25-8.62,3.38-10.12,3.38-7.88,5.25-10.12,4.12-7.12,4.12-6,4.12-5.25,4.5-5.25,4.5-4.88,7.5-7.5,4.12-3.38,6-4.88,8.25-5.62,5.25-3.38,6.75-3.75,7.88-4.12,12-4.88,9-3,13.5-3.38,9-1.5,11.25-1.12,6.38-.38Z"/>
  <path class="st0" d="M720.75,114.38h1.5l-2.25,19.12-7.5,61.5-4.12,33.75-6.38,51.38-2.25,19.88-.38,1.5-1.5-.75-2.62-2.62-3-2.62-3-3-4.12-3.38-3-3-3-2.62-3.75-3.38-6-5.62-4.88-4.5-4.5-4.12-3-2.62-3-3-3-2.62-2.62-2.62-1.5-1.12-1.5.38-4.12,5.25-4.12,4.12-2.62,3-10.5,11.25-6,6-3,2.62-3,3.38-3,2.62-4.12,3.75-3,2.62-5.62,4.88-6.75,5.25-7.5,5.62-6.75,4.88-7.5,4.88-10.88,6.38-9,4.88-6,3-7.12,3.38-13.5,5.25-10.5,3.38-10.88,3-12.38,2.25-8.62,1.12-10.5.75h-10.12l-10.88-.75-10.5-1.5-10.88-2.25-13.88-4.12-7.88-3-11.25-4.88-8.62-4.5-7.5-4.5-5.62-3.75-6.75-4.88-3.75-3-5.25-4.5-7.5-6.75-3.75-3.75-2.62-3-4.5-4.88-3.38-4.12-4.88-6-3.75-5.25-3.38-4.88-2.62-5.25-1.88-6.38-.38-3.38v-4.5l.75-5.62,1.88-5.62,3.38-5.62,2.62-3.38,4.12-4.12,4.12-2.62,5.25-2.62,4.88-1.5,2.25-.38h9.38l5.62,1.5,6,2.62,4.12,2.62,4.5,4.12,3.38,4.12,4.12,6,4.88,6.75,4.88,5.62,6,5.62,5.25,4.12,6,4.5,5.62,3.38,8.25,4.12,9.75,3.75,11.25,3,9.75,1.5,5.25.38h4.12l10.12-.75,9-1.5,9.38-2.62,12.38-4.12,10.88-4.88,8.62-4.88,7.12-4.12,7.88-5.25,5.25-3.75,4.88-3.75,3.75-3.38,3.75-3,3.75-3.38,3-2.62,6.38-6.38h.75v-.75l3-2.62,1.12-1.5h.75l.38-1.12h.75l.38-1.12h.75l.75-1.5,3.38-3.38,2.62-3,3.75-4.12,2.62-3,2.25-2.62.38-1.12-1.5-.75-7.5-5.62-6.75-5.25-7.12-5.25-5.62-4.5-6.75-4.88-7.12-5.25-4.88-3.75-6.75-4.88-2.62-1.88v-.75l5.62-1.88,19.88-5.62,12.75-3.75,21.38-6,24.38-7.12,71.62-20.62,19.88-5.62,7.88-2.25Z"/>
  <path class="st0" d="M268.5,418.5h20.25l12.38,1.12,12,1.88,12.38,3,13.5,4.5,9,3.75,9,4.12,8.25,4.5,5.25,3,8.25,5.62,6.75,4.88,4.12,3.38,5.25,4.5,4.88,4.5,3,2.62,6,6.38,3.38,4.12,3.75,4.12,5.62,7.5,4.5,6.38,3,5.25,2.25,6,1.12,6.75v3.75l-.75,5.25-2.25,6.75-3,5.25-3,3.75-4.12,4.12-4.88,3-4.12,1.88-4.88,1.5-6.38.75-6.38-.38-5.62-1.5-5.25-2.25-4.88-3.38-5.62-5.62-5.62-9-3.75-4.88-3.38-4.12-3.38-3.75-5.25-5.25-5.25-4.12-6-4.5-9-5.25-6-3-7.88-3.38-6.75-2.25-10.12-2.25-7.88-1.12-6-.38h-10.5l-8.62.75-10.88,1.88-9,2.25-13.5,4.5-11.25,4.88-8.25,4.12-9,5.25-15.75,10.5-6.38,4.88-4.88,4.12-5.25,4.12-4.88,4.5-3,2.62-4.12,4.12-3,2.62-4.12,4.12-2.62,3-4.5,4.88-2.62,3-4.88,5.62-4.12,5.25-3.38,4.5-4.88,6.38-3.38,4.88-6,9-6,9.75-5.25,9-3.75,7.12-3.75,4.88-4.5,4.12-5.25,3.38-6,2.62-5.62,1.12h-7.88l-6.75-1.5-6-2.62-4.12-3-4.5-4.12-3.38-4.5-3-5.62-1.88-6.75-.38-1.88v-8.62l1.5-6.38,1.88-4.88,5.25-9.38,3-4.88,4.88-8.25,5.62-9,6-8.62,4.88-7.12,4.88-6.38,4.12-5.25,4.88-6,3.38-4.12,4.5-5.25,5.25-5.62,2.62-3,3-3,2.62-3,5.25-5.25h.75v-.75l3-2.62,6-5.62,3-2.62,4.88-4.12,3.38-3,10.5-8.25,6.75-4.88,5.25-3.75,7.5-4.88,8.62-5.25,7.88-4.5,15.75-7.88,7.88-3.38,10.5-4.12,12.38-4.12,13.5-3.38,11.62-2.25,8.25-1.12,9.38-.75Z"/>
</svg>